<?xml version="1.0" encoding="utf-8"?>
<!-- Generator: Adobe Illustrator 24.0.0, SVG Export Plug-In . SVG Version: 6.00 Build 0)  -->
<svg version="1.1" id="Layer_1" xmlns="http://www.w3.org/2000/svg" xmlns:xlink="http://www.w3.org/1999/xlink" x="0px" y="0px"
	 viewBox="0 0 398.69 71.4" style="enable-background:new 0 0 398.69 71.4;" xml:space="preserve">
<style type="text/css">
	.st0{fill:#374FA1;}
</style>
<g>
	<polygon class="st0" points="8.37,3 3,15.79 40.9,15.79 46.66,3 	"/>
	<polygon class="st0" points="51.83,3 46.33,15.79 80.03,15.79 85.16,3 	"/>
	<polygon class="st0" points="24.47,19.5 14,42.69 26.06,69.4 47.92,69.4 53.49,56.53 35.8,56.53 29.46,42.69 39.27,19.5 	"/>
	<polygon class="st0" points="44.84,19.51 60.29,19.51 46.33,51.81 39.32,51.81 34.8,42.69 	"/>
	<polygon class="st0" points="85.51,20.36 85.51,26.92 95.31,26.92 95.31,51.81 103.46,51.81 103.46,26.92 113.2,26.92 113.2,20.36 
			"/>
	<polygon class="st0" points="230.94,20.36 230.94,26.92 240.74,26.92 240.74,51.81 248.89,51.81 248.89,26.92 258.63,26.92 
		258.63,20.36 	"/>
	<path class="st0" d="M169.12,20.36h-8.8L148.1,51.81h8.6l2.29-6.31h10.73l2.29,6.31h8.7L169.12,20.36z M161.21,39.14l3.18-8.22
		l3.11,8.22H161.21z"/>
	<path class="st0" d="M314.88,20.36h-8.8l-12.22,31.45h8.6l2.29-6.31h10.73l2.29,6.31h8.7L314.88,20.36z M306.96,39.14l3.18-8.22
		l3.11,8.22H306.96z"/>
	<polygon class="st0" points="205.97,20.36 205.97,39.2 193.4,20.36 185.82,20.36 185.82,51.81 193.4,51.81 193.4,31.82 
		205.97,51.81 213.55,51.81 213.55,20.36 	"/>
	<polygon class="st0" points="351.25,20.36 351.25,39.2 338.68,20.36 331.1,20.36 331.1,51.81 338.68,51.81 338.68,31.82 
		351.25,51.81 358.83,51.81 358.83,20.36 	"/>
	<polygon class="st0" points="282.37,20.36 282.37,32.04 270.64,32.04 270.64,20.36 262.74,20.36 262.74,51.81 270.64,51.81 
		270.64,38 282.37,38 282.37,51.81 290.27,51.81 290.27,20.36 	"/>
	<g>
		<path class="st0" d="M116.21,36.11c0-5.19,1.41-9.23,4.24-12.12c2.82-2.89,6.76-4.34,11.8-4.34c5.17,0,9.15,1.42,11.95,4.26
			s4.19,6.82,4.19,11.94c0,3.72-0.61,6.76-1.83,9.14c-1.22,2.38-2.99,4.23-5.3,5.55c-2.31,1.32-5.19,1.98-8.63,1.98
			c-3.5,0-6.4-0.57-8.7-1.71c-2.3-1.14-4.16-2.95-5.58-5.42C116.92,42.92,116.21,39.82,116.21,36.11z M125.8,36.15
			c0,3.21,0.58,5.52,1.75,6.92c1.17,1.4,2.75,2.1,4.76,2.1c2.06,0,3.66-0.69,4.79-2.06c1.13-1.37,1.69-3.84,1.69-7.4
			c0-2.99-0.59-5.18-1.77-6.56c-1.18-1.38-2.78-2.07-4.8-2.07c-1.93,0-3.49,0.7-4.66,2.1C126.39,30.59,125.8,32.91,125.8,36.15z"/>
	</g>
	<g>
		<path class="st0" d="M381.13,40.67v-6.25h14.56v17.52c-2.49,0.17-5.32,0.17-5.47-0.12c-0.52-1.04-0.26-3.55-0.75-3.01
			c-2.06,2.29-5.51,3.95-8.54,3.95c-3.73,0-6.38-0.64-8.73-1.94c-2.35-1.3-4.62-3.4-5.91-5.98c-1.3-2.58-1.92-5.42-1.92-8.75
			c0-3.51,0.45-5.98,1.87-8.58c1.42-2.6,3.49-4.57,6.22-5.92c2.13-1.04,4.77-2.06,8.37-2.06c3.48,0,4.69,0.26,6.41,0.9
			c1.72,0.64,3.81,1.49,5.63,3.63c1.14,1.35,2.56,3.8,2.81,6.73l-7.88-0.12c-0.45-1.89-1.59-2.76-2.51-3.4
			c-0.92-0.64-3.07-1.24-4.5-1.24c-2.13,0-4.5,1.11-5.87,2.53c-1.8,1.87-2.51,4.74-2.51,8.02c0,3.48,0.97,5.52,2.25,7.02
			c1.28,1.49,4.17,2.72,6.45,2.69c0.62-0.01,1.78-0.17,2.73-0.59c0.9-0.41,1.85-0.91,3.04-2.06c0.63-0.61,1.49-2.95,1.49-2.95
			H381.13z"/>
	</g>
</g>
</svg>
