<?xml version="1.0" encoding="UTF-8"?>
<svg version="1.1" xmlns="http://www.w3.org/2000/svg" width="225" height="225">
<path d="M0 0 C74.25 0 148.5 0 225 0 C225 74.25 225 148.5 225 225 C150.75 225 76.5 225 0 225 C0 150.75 0 76.5 0 0 Z " fill="#FEFEFE" transform="translate(0,0)"/>
<path d="M0 0 C1.51815699 0.00015911 3.0363194 0.00585313 4.55444336 0.01586914 C5.35208603 0.01728409 6.1497287 0.01869904 6.97154236 0.02015686 C9.52916146 0.02577223 12.08669429 0.03832727 14.64428711 0.05102539 C16.37410356 0.05603841 18.10392137 0.06060166 19.83374023 0.06469727 C24.08312264 0.07574664 28.33244023 0.09302153 32.58178711 0.11352539 C30.41019967 6.97996179 27.77831119 13.5096372 24.87866211 20.09790039 C23.971846 22.18749856 23.0656129 24.27734981 22.15991211 26.36743164 C20.74142929 29.6310272 19.31896871 32.89267426 17.88647461 36.15014648 C16.49688357 39.31516789 15.12403061 42.48701821 13.75366211 45.66040039 C13.3204364 46.6344281 12.88721069 47.60845581 12.44085693 48.61199951 C12.05004944 49.52354797 11.65924194 50.43509644 11.2565918 51.37426758 C10.90812195 52.17096863 10.5596521 52.96766968 10.20062256 53.78851318 C8.81570098 58.9917697 11.53273723 63.53895911 13.74194336 68.16430664 C14.01615112 68.74901733 14.29035889 69.33372803 14.57287598 69.93615723 C15.59066663 72.10228216 16.61803479 74.26389653 17.64428711 76.42602539 C19.93366211 81.27290039 22.22303711 86.11977539 24.58178711 91.11352539 C38.77178711 91.44352539 52.96178711 91.77352539 67.58178711 92.11352539 C66.7495005 96.27495842 65.75188656 99.39920969 64.11303711 103.25415039 C63.62448242 104.40657227 63.13592773 105.55899414 62.63256836 106.74633789 C62.12081055 107.94000977 61.60905273 109.13368164 61.08178711 110.36352539 C60.5700293 111.57266602 60.05827148 112.78180664 59.53100586 114.02758789 C55.72118902 122.97412348 55.72118902 122.97412348 54.58178711 124.11352539 C52.86313302 124.20711729 51.14062967 124.2309715 49.41943359 124.22705078 C48.31836777 124.22697525 47.21730194 124.22689972 46.08287048 124.2268219 C44.88497391 124.22166061 43.68707733 124.21649933 42.45288086 124.21118164 C41.23351334 124.20976669 40.01414581 124.20835175 38.75782776 124.20689392 C34.84495641 124.20127506 30.9321413 124.18871935 27.01928711 124.17602539 C24.37410564 124.17101282 21.72892328 124.16644949 19.08374023 124.16235352 C12.58306985 124.1512995 6.0824325 124.13454303 -0.41821289 124.11352539 C-0.90588135 122.99719727 -1.3935498 121.88086914 -1.89599609 120.73071289 C-3.75688339 116.47231676 -5.62133845 112.21548808 -7.48599243 107.95874023 C-8.72689925 105.12224272 -9.96370231 102.28398055 -11.20019531 99.44555664 C-14.73291897 91.3560973 -18.26107057 83.28045642 -22.16821289 75.36352539 C-22.69503662 74.28200195 -23.22186035 73.20047852 -23.76464844 72.08618164 C-24.71228933 70.16470362 -25.68366692 68.25467155 -26.68310547 66.35961914 C-28.63750256 62.37400296 -29.97009491 59.4335347 -28.66821289 55.06274414 C-27.95790065 53.39553173 -27.19969544 51.74858677 -26.41821289 50.11352539 C-25.85957541 48.86171956 -25.30410749 47.60849677 -24.75097656 46.35424805 C-22.75028971 41.85582313 -20.68024887 37.39075702 -18.60571289 32.92602539 C-17.20078255 29.89205946 -15.79885792 26.85671926 -14.39868164 23.82055664 C-14.059487 23.08644562 -13.72029236 22.35233459 -13.37081909 21.59597778 C-10.64091236 15.66199701 -8.06081148 9.67314112 -5.54052734 3.64746094 C-3.9836164 0.13230352 -3.9836164 0.13230352 0 0 Z " fill="#374FA1" transform="translate(67.418212890625,70.886474609375)"/>
<path d="M0 0 C1.32708733 0.00539291 1.32708733 0.00539291 2.6809845 0.01089478 C4.07108734 0.01067574 4.07108734 0.01067574 5.48927307 0.01045227 C8.56809285 0.01115178 11.64685295 0.01894595 14.72566223 0.02676392 C16.85415616 0.02862796 18.98265051 0.03005193 21.11114502 0.03105164 C26.72537919 0.03487789 32.33958766 0.04470909 37.95381165 0.05575562 C43.67788851 0.06596743 49.40196951 0.07054876 55.12605286 0.07559204 C66.36629855 0.08633126 77.60652513 0.10340896 88.84675598 0.12442017 C87.45304278 3.39616076 86.05637879 6.66663428 84.65925598 9.93692017 C84.07821106 11.30107056 84.07821106 11.30107056 83.48542786 12.69277954 C82.90051575 14.06079712 82.90051575 14.06079712 82.30378723 15.45645142 C81.95292053 16.27863159 81.60205383 17.10081177 81.24055481 17.94790649 C79.15764604 22.69492454 76.99186388 27.40518279 74.84675598 32.12442017 C43.82675598 32.12442017 12.80675598 32.12442017 -19.15324402 32.12442017 C-15.77322764 21.98437103 -15.77322764 21.98437103 -13.92668152 17.46817017 C-13.53480652 16.50910767 -13.14293152 15.55004517 -12.73918152 14.56192017 C-12.13976746 13.10785767 -12.13976746 13.10785767 -11.52824402 11.62442017 C-11.12090027 10.62410767 -10.71355652 9.62379517 -10.29386902 8.59317017 C-6.77263806 0.01162718 -6.77263806 0.01162718 0 0 Z " fill="#3950A1" transform="translate(30.153244018554688,29.875579833984375)"/>
<path d="M0 0 C12.54 0 25.08 0 38 0 C36.1177695 5.6466915 34.29332083 10.89161771 31.953125 16.3046875 C31.66480804 16.97465759 31.37649109 17.64462769 31.07943726 18.3348999 C30.13974152 20.51644032 29.19495136 22.69573161 28.25 24.875 C27.58997271 26.40397905 26.93031102 27.93311598 26.27099609 29.46240234 C25.24254735 31.84764265 24.21376916 34.23273605 23.18356323 36.61721802 C20.67693244 42.42043093 18.18946155 48.23160806 15.7109375 54.046875 C15.01924214 55.66814705 14.32751093 57.2894038 13.63574219 58.91064453 C12.63288397 61.26106703 11.63063957 63.61174005 10.63049316 65.96331787 C9.70638208 68.13534549 8.77931272 70.30608732 7.8515625 72.4765625 C7.57621674 73.12590759 7.30087097 73.77525269 7.0171814 74.4442749 C5.11390022 78.88609978 5.11390022 78.88609978 4 80 C2.65732587 80.08631874 1.31025678 80.10706473 -0.03515625 80.09765625 C-0.84404297 80.09443359 -1.65292969 80.09121094 -2.48632812 80.08789062 C-3.33646484 80.07951172 -4.18660156 80.07113281 -5.0625 80.0625 C-5.91650391 80.05798828 -6.77050781 80.05347656 -7.65039062 80.04882812 C-9.76695663 80.03700373 -11.88348685 80.01906769 -14 80 C-15.71744257 76.82778254 -17.39321595 73.6352851 -19.0625 70.4375 C-19.54783203 69.54224609 -20.03316406 68.64699219 -20.53320312 67.72460938 C-20.98759766 66.84482422 -21.44199219 65.96503906 -21.91015625 65.05859375 C-22.33433838 64.25736084 -22.75852051 63.45612793 -23.19555664 62.63061523 C-25.23724753 55.95406914 -21.85947426 49.77077454 -19.140625 43.76953125 C-18.75436951 42.89785812 -18.36811401 42.026185 -17.97015381 41.12809753 C-16.73829166 38.35250057 -15.49458887 35.58241027 -14.25 32.8125 C-13.02228562 30.05934807 -11.79706009 27.30510274 -10.57269287 24.55046082 C-9.81270906 22.84289094 -9.05040766 21.13634965 -8.28521729 19.43110657 C-5.40531723 12.99474212 -2.71506304 6.5161513 0 0 Z " fill="#364FA1" transform="translate(114,71)"/>
<path d="M0 0 C27.39 0 54.78 0 83 0 C79.72653145 10.91156182 75.31338727 21.45616445 71 32 C43.28 32 15.56 32 -13 32 C-8.72407613 21.31019034 -4.4281836 10.62764064 0 0 Z " fill="#3850A1" transform="translate(131,30)"/>
</svg>
